<svg version="1.1" viewBox="0.0 0.0 960.0 720.0" fill="none" stroke="none" stroke-linecap="square" stroke-miterlimit="10" xmlns:xlink="http://www.w3.org/1999/xlink" xmlns="http://www.w3.org/2000/svg"><clipPath id="p.0"><path d="m0 0l960.0 0l0 720.0l-960.0 0l0 -720.0z" clip-rule="nonzero"/></clipPath><g clip-path="url(#p.0)"><path fill="#000000" fill-opacity="0.0" d="m0 0l960.0 0l0 720.0l-960.0 0z" fill-rule="evenodd"/><path fill="#4a86e8" d="m76.00394 267.1332l339.3005 0l0 94.21097l-339.3005 0z" fill-rule="evenodd"/><path stroke="#000000" stroke-width="1.0" stroke-linejoin="round" stroke-linecap="butt" d="m76.00394 267.1332l339.3005 0l0 94.21097l-339.3005 0z" fill-rule="evenodd"/><path fill="#000000" d="m241.93956 321.1587q-0.609375 0 -0.9375 -0.328125q-0.328125 -0.328125 -0.328125 -0.9375l0 -10.625q0 -0.609375 0.328125 -0.9375q0.328125 -0.328125 0.9375 -0.328125l4.484375 0q1.375 0 2.34375 0.421875q0.96875 0.40625 1.484375 1.171875q0.515625 0.765625 0.515625 1.828125q0 1.1875 -0.6875 2.015625q-0.6875 0.8125 -1.890625 1.09375l0 -0.28125q1.375 0.203125 2.140625 1.046875q0.765625 0.84375 0.765625 2.1875q0 1.75 -1.1875 2.71875q-1.171875 0.953125 -3.28125 0.953125l-4.6875 0zm1.03125 -1.8125l3.359375 0q1.265625 0 1.859375 -0.484375q0.59375 -0.5 0.59375 -1.484375q0 -1.015625 -0.59375 -1.5q-0.59375 -0.484375 -1.859375 -0.484375l-3.359375 0l0 3.953125zm0 -5.765625l3.03125 0q1.234375 0 1.84375 -0.46875q0.609375 -0.484375 0.609375 -1.40625q0 -0.9375 -0.609375 -1.40625q-0.609375 -0.484375 -1.84375 -0.484375l-3.03125 0l0 3.765625z" fill-rule="nonzero"/><path fill="#4a86e8" d="m76.00394 103.64404l339.3005 0l0 94.21097l-339.3005 0z" fill-rule="evenodd"/><path stroke="#000000" stroke-width="1.0" stroke-linejoin="round" stroke-linecap="butt" d="m76.00394 103.64404l339.3005 0l0 94.21097l-339.3005 0z" fill-rule="evenodd"/><path fill="#000000" d="m240.27657 157.82578q-0.4375 0 -0.71875 -0.203125q-0.265625 -0.21875 -0.328125 -0.5625q-0.046875 -0.34375 0.140625 -0.765625l4.921875 -10.921875q0.25 -0.53125 0.59375 -0.765625q0.34375 -0.234375 0.78125 -0.234375q0.4375 0 0.78125 0.234375q0.34375 0.234375 0.59375 0.765625l4.9375 10.921875q0.203125 0.421875 0.140625 0.78125q-0.046875 0.34375 -0.3125 0.546875q-0.265625 0.203125 -0.6875 0.203125q-0.515625 0 -0.8125 -0.25q-0.28125 -0.265625 -0.515625 -0.78125l-1.203125 -2.8125l1.0 0.640625l-7.875 0l1.015625 -0.640625l-1.203125 2.8125q-0.234375 0.546875 -0.5 0.796875q-0.265625 0.234375 -0.75 0.234375zm5.359375 -10.71875l-2.609375 6.21875l-0.484375 -0.59375l6.234375 0l-0.46875 0.59375l-2.640625 -6.21875l-0.03125 0z" fill-rule="nonzero"/><path fill="#4a86e8" d="m529.2835 430.6266l339.30048 0l0 94.21094l-339.30048 0z" fill-rule="evenodd"/><path stroke="#000000" stroke-width="1.0" stroke-linejoin="round" stroke-linecap="butt" d="m529.2835 430.6266l339.30048 0l0 94.21094l-339.30048 0z" fill-rule="evenodd"/><path fill="#000000" d="m694.07135 484.65207l0 -13.359375l5.015625 0q1.53125 0 2.453125 0.40625q0.921875 0.40625 1.4375 1.25q0.53125 0.84375 0.53125 1.765625q0 0.859375 -0.46875 1.625q-0.453125 0.75 -1.390625 1.203125q1.203125 0.359375 1.859375 1.21875q0.65625 0.859375 0.65625 2.015625q0 0.9375 -0.40625 1.75q-0.390625 0.796875 -0.984375 1.234375q-0.578125 0.4375 -1.453125 0.671875q-0.875 0.21875 -2.15625 0.21875l-5.09375 0zm1.78125 -7.75l2.875 0q1.1875 0 1.6875 -0.140625q0.671875 -0.203125 1.015625 -0.671875q0.34375 -0.46875 0.34375 -1.171875q0 -0.65625 -0.328125 -1.15625q-0.3125 -0.515625 -0.90625 -0.703125q-0.59375 -0.1875 -2.03125 -0.1875l-2.65625 0l0 4.03125zm0 6.171875l3.3125 0q0.859375 0 1.203125 -0.0625q0.609375 -0.109375 1.015625 -0.359375q0.421875 -0.265625 0.6875 -0.75q0.265625 -0.484375 0.265625 -1.125q0 -0.75 -0.390625 -1.296875q-0.375 -0.546875 -1.0625 -0.765625q-0.671875 -0.234375 -1.953125 -0.234375l-3.078125 0l0 4.59375z" fill-rule="nonzero"/><path fill="#4a86e8" d="m529.2835 103.63984l339.30048 0l0 94.21096l-339.30048 0z" fill-rule="evenodd"/><path stroke="#000000" stroke-width="1.0" stroke-linejoin="round" stroke-linecap="butt" d="m529.2835 103.63984l339.30048 0l0 94.21096l-339.30048 0z" fill-rule="evenodd"/><path fill="#000000" d="m693.5561 157.82156q-0.4375 0 -0.71875 -0.203125q-0.265625 -0.21875 -0.328125 -0.5625q-0.046875 -0.34375 0.140625 -0.765625l4.921875 -10.921875q0.25 -0.53125 0.59375 -0.765625q0.34375 -0.234375 0.78125 -0.234375q0.4375 0 0.78125 0.234375q0.34375 0.234375 0.59375 0.765625l4.9375 10.921875q0.203125 0.421875 0.140625 0.78125q-0.046875 0.34375 -0.3125 0.546875q-0.265625 0.203125 -0.6875 0.203125q-0.515625 0 -0.8125 -0.25q-0.28125 -0.265625 -0.515625 -0.78125l-1.203125 -2.8125l1.0 0.640625l-7.875 0l1.015625 -0.640625l-1.203125 2.8125q-0.234375 0.546875 -0.5 0.796875q-0.265625 0.234375 -0.75 0.234375zm5.359375 -10.71875l-2.609375 6.21875l-0.484375 -0.59375l6.234375 0l-0.46875 0.59375l-2.640625 -6.21875l-0.03125 0z" fill-rule="nonzero"/><path fill="#000000" fill-opacity="0.0" d="m245.65419 197.85501l0 69.269775" fill-rule="evenodd"/><path stroke="#000000" stroke-width="3.0" stroke-linejoin="round" stroke-linecap="butt" stroke-dasharray="12.0,9.0" d="m245.6542 197.85501l0 51.26979" fill-rule="evenodd"/><path fill="#000000" stroke="#000000" stroke-width="3.0" stroke-linecap="butt" d="m240.699 249.1248l4.9552 13.614273l4.955185 -13.614273z" fill-rule="evenodd"/><path fill="#9900ff" d="m529.2835 267.1332l339.30048 0l0 94.21097l-339.30048 0z" fill-rule="evenodd"/><path stroke="#000000" stroke-width="1.0" stroke-linejoin="round" stroke-linecap="butt" d="m529.2835 267.1332l339.30048 0l0 94.21097l-339.30048 0z" fill-rule="evenodd"/><path fill="#000000" d="m647.6817 309.17432l-7.46875 -3.15625q-0.859375 -0.359375 -0.859375 -1.234375q0 -0.421875 0.21875 -0.703125q0.21875 -0.296875 0.640625 -0.484375l7.46875 -3.171875q0.3125 -0.140625 0.5625 -0.0625q0.25 0.078125 0.390625 0.28125q0.15625 0.203125 0.171875 0.46875q0.03125 0.265625 -0.09375 0.5q-0.125 0.21875 -0.4375 0.359375l-8.140625 3.40625l0 -1.15625l8.140625 3.421875q0.3125 0.125 0.4375 0.359375q0.125 0.234375 0.09375 0.484375q-0.015625 0.25 -0.171875 0.46875q-0.140625 0.203125 -0.390625 0.28125q-0.25 0.0625 -0.5625 -0.0625zm11.193726 0l-7.46875 -3.15625q-0.859375 -0.359375 -0.859375 -1.234375q0 -0.421875 0.21875 -0.703125q0.21875 -0.296875 0.640625 -0.484375l7.46875 -3.171875q0.3125 -0.140625 0.5625 -0.0625q0.25 0.078125 0.390625 0.28125q0.15625 0.203125 0.171875 0.46875q0.03125 0.265625 -0.09375 0.5q-0.125 0.21875 -0.4375 0.359375l-8.140625 3.40625l0 -1.15625l8.140625 3.421875q0.3125 0.125 0.4375 0.359375q0.125 0.234375 0.09375 0.484375q-0.015625 0.25 -0.171875 0.46875q-0.140625 0.203125 -0.390625 0.28125q-0.25 0.0625 -0.5625 -0.0625zm4.2719116 1.109375q-0.5625 0 -0.859375 -0.328125q-0.296875 -0.34375 -0.296875 -0.9375l0 -6.84375q0 -0.609375 0.296875 -0.9375q0.296875 -0.328125 0.859375 -0.328125q0.546875 0 0.859375 0.328125q0.3125 0.328125 0.3125 0.9375l0 6.84375q0 0.59375 -0.296875 0.9375q-0.296875 0.328125 -0.875 0.328125zm0 -11.109375q-0.65625 0 -1.03125 -0.328125q-0.359375 -0.328125 -0.359375 -0.90625q0 -0.59375 0.359375 -0.90625q0.375 -0.328125 1.03125 -0.328125q0.671875 0 1.015625 0.328125q0.359375 0.3125 0.359375 0.90625q0 0.578125 -0.359375 0.90625q-0.34375 0.328125 -1.015625 0.328125zm4.757324 11.140625q-0.5625 0 -0.859375 -0.3125q-0.296875 -0.3125 -0.296875 -0.890625l0 -7.046875q0 -0.578125 0.296875 -0.875q0.296875 -0.296875 0.828125 -0.296875q0.546875 0 0.84375 0.296875q0.296875 0.296875 0.296875 0.875l0 1.265625l-0.203125 -0.46875q0.40625 -0.984375 1.265625 -1.5q0.875 -0.515625 1.984375 -0.515625q1.09375 0 1.796875 0.421875q0.71875 0.40625 1.0625 1.234375q0.359375 0.828125 0.359375 2.09375l0 4.515625q0 0.578125 -0.296875 0.890625q-0.296875 0.3125 -0.859375 0.3125q-0.546875 0 -0.859375 -0.3125q-0.3125 -0.3125 -0.3125 -0.890625l0 -4.40625q0 -1.0625 -0.40625 -1.546875q-0.390625 -0.484375 -1.234375 -0.484375q-1.03125 0 -1.640625 0.65625q-0.59375 0.640625 -0.59375 1.703125l0 4.078125q0 1.203125 -1.171875 1.203125zm13.929565 0.03125q-1.21875 0 -2.03125 -0.40625q-0.796875 -0.421875 -1.203125 -1.203125q-0.390625 -0.796875 -0.390625 -1.96875l0 -3.984375l-0.96875 0q-0.4375 0 -0.6875 -0.21875q-0.234375 -0.234375 -0.234375 -0.65625q0 -0.421875 0.234375 -0.640625q0.25 -0.234375 0.6875 -0.234375l0.96875 0l0 -1.703125q0 -0.578125 0.3125 -0.875q0.3125 -0.296875 0.875 -0.296875q0.546875 0 0.84375 0.296875q0.3125 0.296875 0.3125 0.875l0 1.703125l1.96875 0q0.453125 0 0.6875 0.234375q0.25 0.21875 0.25 0.640625q0 0.421875 -0.25 0.65625q-0.234375 0.21875 -0.6875 0.21875l-1.96875 0l0 3.84375q0 0.90625 0.390625 1.359375q0.390625 0.4375 1.265625 0.4375q0.3125 0 0.546875 -0.046875q0.25 -0.0625 0.4375 -0.078125q0.234375 -0.03125 0.375 0.140625q0.15625 0.15625 0.15625 0.640625q0 0.375 -0.125 0.671875q-0.125 0.28125 -0.4375 0.390625q-0.25 0.078125 -0.640625 0.140625q-0.390625 0.0625 -0.6875 0.0625zm7.3831177 0q-1.546875 0 -2.671875 -0.578125q-1.109375 -0.578125 -1.71875 -1.640625q-0.609375 -1.0625 -0.609375 -2.515625q0 -1.421875 0.59375 -2.484375q0.59375 -1.0625 1.625 -1.671875q1.03125 -0.609375 2.359375 -0.609375q0.96875 0 1.734375 0.328125q0.78125 0.3125 1.328125 0.90625q0.5625 0.59375 0.84375 1.453125q0.296875 0.84375 0.296875 1.90625q0 0.328125 -0.234375 0.515625q-0.234375 0.171875 -0.671875 0.171875l-5.984375 0l0 -1.34375l5.234375 0l-0.296875 0.28125q0 -0.859375 -0.25 -1.4375q-0.25 -0.578125 -0.734375 -0.875q-0.46875 -0.3125 -1.171875 -0.3125q-0.78125 0 -1.34375 0.359375q-0.546875 0.359375 -0.84375 1.03125q-0.28125 0.65625 -0.28125 1.578125l0 0.125q0 1.53125 0.71875 2.296875q0.71875 0.75 2.125 0.75q0.484375 0 1.078125 -0.125q0.609375 -0.125 1.15625 -0.421875q0.390625 -0.21875 0.6875 -0.1875q0.296875 0.015625 0.46875 0.203125q0.1875 0.1875 0.21875 0.46875q0.046875 0.265625 -0.09375 0.546875q-0.140625 0.265625 -0.484375 0.484375q-0.640625 0.40625 -1.5 0.609375q-0.84375 0.1875 -1.578125 0.1875zm6.8148193 -0.03125q-0.578125 0 -0.890625 -0.3125q-0.296875 -0.3125 -0.296875 -0.890625l0 -7.046875q0 -0.578125 0.296875 -0.875q0.296875 -0.296875 0.828125 -0.296875q0.546875 0 0.84375 0.296875q0.296875 0.296875 0.296875 0.875l0 1.171875l-0.1875 0q0.265625 -1.125 1.03125 -1.703125q0.765625 -0.578125 2.03125 -0.6875q0.390625 -0.03125 0.625 0.203125q0.234375 0.234375 0.265625 0.71875q0.046875 0.46875 -0.203125 0.765625q-0.25 0.28125 -0.765625 0.328125l-0.40625 0.046875q-1.140625 0.109375 -1.71875 0.703125q-0.578125 0.578125 -0.578125 1.640625l0 3.859375q0 0.578125 -0.296875 0.890625q-0.296875 0.3125 -0.875 0.3125zm8.4296875 0q-0.5625 0 -0.875 -0.3125q-0.296875 -0.3125 -0.296875 -0.890625l0 -6.328125l-0.859375 0q-0.453125 0 -0.703125 -0.21875q-0.234375 -0.234375 -0.234375 -0.65625q0 -0.421875 0.234375 -0.640625q0.25 -0.234375 0.703125 -0.234375l1.53125 0l-0.671875 0.625l0 -0.640625q0 -1.921875 0.96875 -2.875q0.96875 -0.96875 2.796875 -1.140625l0.640625 -0.046875q0.375 -0.046875 0.59375 0.125q0.21875 0.15625 0.296875 0.40625q0.078125 0.25 0.015625 0.515625q-0.046875 0.25 -0.234375 0.453125q-0.171875 0.1875 -0.453125 0.203125l-0.265625 0.03125q-1.0625 0.0625 -1.546875 0.53125q-0.484375 0.46875 -0.484375 1.421875l0 0.6875l-0.296875 -0.296875l1.890625 0q0.4375 0 0.671875 0.234375q0.25 0.21875 0.25 0.640625q0 0.421875 -0.25 0.65625q-0.234375 0.21875 -0.671875 0.21875l-1.59375 0l0 6.328125q0 1.203125 -1.15625 1.203125zm7.91626 0.03125q-0.984375 0 -1.765625 -0.375q-0.78125 -0.390625 -1.21875 -1.046875q-0.4375 -0.65625 -0.4375 -1.46875q0 -1.015625 0.515625 -1.59375q0.53125 -0.59375 1.703125 -0.84375q1.1875 -0.265625 3.15625 -0.265625l0.9375 0l0 1.34375l-0.921875 0q-1.15625 0 -1.84375 0.109375q-0.6875 0.109375 -0.984375 0.390625q-0.28125 0.265625 -0.28125 0.75q0 0.609375 0.421875 1.0q0.4375 0.390625 1.203125 0.390625q0.609375 0 1.078125 -0.28125q0.484375 -0.296875 0.765625 -0.796875q0.28125 -0.5 0.28125 -1.15625l0 -2.140625q0 -0.9375 -0.421875 -1.34375q-0.40625 -0.421875 -1.375 -0.421875q-0.53125 0 -1.15625 0.140625q-0.625 0.125 -1.3125 0.4375q-0.359375 0.171875 -0.640625 0.109375q-0.265625 -0.078125 -0.421875 -0.3125q-0.140625 -0.234375 -0.140625 -0.515625q0 -0.28125 0.140625 -0.546875q0.15625 -0.28125 0.515625 -0.40625q0.859375 -0.359375 1.640625 -0.5q0.796875 -0.15625 1.453125 -0.15625q1.34375 0 2.203125 0.421875q0.875 0.40625 1.296875 1.234375q0.4375 0.828125 0.4375 2.140625l0 4.46875q0 0.578125 -0.28125 0.890625q-0.28125 0.3125 -0.796875 0.3125q-0.53125 0 -0.828125 -0.3125q-0.28125 -0.3125 -0.28125 -0.890625l0 -0.890625l0.15625 0q-0.125 0.65625 -0.515625 1.140625q-0.375 0.46875 -0.953125 0.734375q-0.578125 0.25 -1.328125 0.25zm11.408142 0q-1.421875 0 -2.5 -0.578125q-1.0625 -0.59375 -1.640625 -1.671875q-0.578125 -1.09375 -0.578125 -2.546875q0 -1.09375 0.328125 -1.953125q0.328125 -0.875 0.9375 -1.484375q0.625 -0.609375 1.5 -0.9375q0.875 -0.328125 1.953125 -0.328125q0.625 0 1.34375 0.171875q0.71875 0.171875 1.34375 0.5625q0.296875 0.1875 0.390625 0.453125q0.09375 0.25 0.03125 0.53125q-0.046875 0.265625 -0.21875 0.46875q-0.171875 0.1875 -0.4375 0.234375q-0.265625 0.046875 -0.578125 -0.125q-0.40625 -0.234375 -0.84375 -0.359375q-0.421875 -0.125 -0.8125 -0.125q-0.625 0 -1.09375 0.203125q-0.46875 0.1875 -0.796875 0.5625q-0.3125 0.359375 -0.484375 0.90625q-0.171875 0.53125 -0.171875 1.234375q0 1.390625 0.65625 2.1875q0.671875 0.78125 1.890625 0.78125q0.390625 0 0.796875 -0.109375q0.421875 -0.109375 0.859375 -0.359375q0.3125 -0.15625 0.5625 -0.09375q0.25 0.046875 0.421875 0.25q0.171875 0.1875 0.203125 0.453125q0.046875 0.265625 -0.0625 0.53125q-0.09375 0.265625 -0.375 0.4375q-0.625 0.359375 -1.3125 0.53125q-0.6875 0.171875 -1.3125 0.171875zm8.90033 0q-1.546875 0 -2.671875 -0.578125q-1.109375 -0.578125 -1.71875 -1.640625q-0.609375 -1.0625 -0.609375 -2.515625q0 -1.421875 0.59375 -2.484375q0.59375 -1.0625 1.625 -1.671875q1.03125 -0.609375 2.359375 -0.609375q0.96875 0 1.734375 0.328125q0.78125 0.3125 1.328125 0.90625q0.5625 0.59375 0.84375 1.453125q0.296875 0.84375 0.296875 1.90625q0 0.328125 -0.234375 0.515625q-0.234375 0.171875 -0.671875 0.171875l-5.984375 0l0 -1.34375l5.234375 0l-0.296875 0.28125q0 -0.859375 -0.25 -1.4375q-0.25 -0.578125 -0.734375 -0.875q-0.46875 -0.3125 -1.171875 -0.3125q-0.78125 0 -1.34375 0.359375q-0.546875 0.359375 -0.84375 1.03125q-0.28125 0.65625 -0.28125 1.578125l0 0.125q0 1.53125 0.71875 2.296875q0.71875 0.75 2.125 0.75q0.484375 0 1.078125 -0.125q0.609375 -0.125 1.15625 -0.421875q0.390625 -0.21875 0.6875 -0.1875q0.296875 0.015625 0.46875 0.203125q0.1875 0.1875 0.21875 0.46875q0.046875 0.265625 -0.09375 0.546875q-0.140625 0.265625 -0.484375 0.484375q-0.640625 0.40625 -1.5 0.609375q-0.84375 0.1875 -1.578125 0.1875zm6.3304443 -1.171875q-0.3125 0.125 -0.578125 0.0625q-0.25 -0.078125 -0.40625 -0.28125q-0.140625 -0.21875 -0.15625 -0.46875q-0.015625 -0.25 0.109375 -0.484375q0.140625 -0.234375 0.4375 -0.359375l8.125 -3.421875l0 1.15625l-8.125 -3.40625q-0.296875 -0.140625 -0.4375 -0.359375q-0.125 -0.234375 -0.109375 -0.5q0.015625 -0.265625 0.15625 -0.46875q0.15625 -0.203125 0.40625 -0.28125q0.265625 -0.078125 0.578125 0.0625l7.46875 3.171875q0.859375 0.34375 0.859375 1.1875q0 0.4375 -0.21875 0.75q-0.21875 0.296875 -0.640625 0.484375l-7.46875 3.15625zm11.193726 0q-0.3125 0.125 -0.578125 0.0625q-0.25 -0.078125 -0.40625 -0.28125q-0.140625 -0.21875 -0.15625 -0.46875q-0.015625 -0.25 0.109375 -0.484375q0.140625 -0.234375 0.4375 -0.359375l8.125 -3.421875l0 1.15625l-8.125 -3.40625q-0.296875 -0.140625 -0.4375 -0.359375q-0.125 -0.234375 -0.109375 -0.5q0.015625 -0.265625 0.15625 -0.46875q0.15625 -0.203125 0.40625 -0.28125q0.265625 -0.078125 0.578125 0.0625l7.46875 3.171875q0.859375 0.34375 0.859375 1.1875q0 0.4375 -0.21875 0.75q-0.21875 0.296875 -0.640625 0.484375l-7.46875 3.15625z" fill-rule="nonzero"/><path fill="#000000" d="m698.9282 332.31494q-0.578125 0 -0.890625 -0.328125q-0.296875 -0.328125 -0.296875 -0.90625l0 -11.0q0 -0.59375 0.296875 -0.90625q0.3125 -0.3125 0.890625 -0.3125q0.578125 0 0.890625 0.3125q0.3125 0.3125 0.3125 0.90625l0 11.0q0 0.578125 -0.296875 0.90625q-0.296875 0.328125 -0.90625 0.328125z" fill-rule="nonzero"/><path fill="#000000" fill-opacity="0.0" d="m698.9337 197.8508l0 69.269806" fill-rule="evenodd"/><path stroke="#000000" stroke-width="3.0" stroke-linejoin="round" stroke-linecap="butt" stroke-dasharray="12.0,9.0" d="m698.9337 197.8508l0 51.26979" fill-rule="evenodd"/><path fill="#000000" stroke="#000000" stroke-width="3.0" stroke-linecap="butt" d="m693.9785 249.12059l4.9552 13.614304l4.9552 -13.614304z" fill-rule="evenodd"/><path fill="#000000" fill-opacity="0.0" d="m698.9337 430.6266l0 -69.269775" fill-rule="evenodd"/><path stroke="#000000" stroke-width="3.0" stroke-linejoin="round" stroke-linecap="butt" stroke-dasharray="12.0,9.0" d="m698.9337 430.6266l0 -51.269806" fill-rule="evenodd"/><path stroke="#000000" stroke-width="3.0" stroke-linecap="butt" d="m703.8889 379.35678l-4.9552 -13.614288l-4.9552 13.614288z" fill-rule="evenodd"/><path fill="#000000" fill-opacity="0.0" d="m477.60754 61.57476l2.2425842 524.26935" fill-rule="evenodd"/><path stroke="#000000" stroke-width="4.0" stroke-linejoin="round" stroke-linecap="butt" d="m477.60754 61.57476l2.2425842 524.26935" fill-rule="evenodd"/><path fill="#000000" fill-opacity="0.0" d="m141.90047 621.07294l0 69.269775" fill-rule="evenodd"/><path stroke="#000000" stroke-width="3.0" stroke-linejoin="round" stroke-linecap="butt" stroke-dasharray="12.0,9.0" d="m141.90048 621.07294l0 51.269775" fill-rule="evenodd"/><path fill="#000000" stroke="#000000" stroke-width="3.0" stroke-linecap="butt" d="m136.94528 672.3427l4.9552 13.614258l4.9552 -13.614258z" fill-rule="evenodd"/><path fill="#000000" fill-opacity="0.0" d="m525.31067 627.1904l0 69.269775" fill-rule="evenodd"/><path stroke="#000000" stroke-width="3.0" stroke-linejoin="round" stroke-linecap="butt" stroke-dasharray="12.0,9.0" d="m525.31067 627.1904l0 51.269775" fill-rule="evenodd"/><path stroke="#000000" stroke-width="3.0" stroke-linecap="butt" d="m520.35547 678.4602l4.9552 13.614319l4.9552 -13.614319z" fill-rule="evenodd"/><path fill="#000000" fill-opacity="0.0" d="m171.02408 621.07294l318.75336 0l0 69.269775l-318.75336 0z" fill-rule="evenodd"/><path fill="#000000" d="m183.7272 656.95294q-0.625 0 -0.953125 -0.3125q-0.3125 -0.328125 -0.3125 -0.953125l0 -17.21875q0 -0.609375 0.3125 -0.921875q0.328125 -0.328125 0.953125 -0.328125l5.390625 0q4.796875 0 7.390625 2.515625q2.609375 2.515625 2.609375 7.328125q0 2.421875 -0.65625 4.25q-0.65625 1.828125 -1.953125 3.09375q-1.28125 1.265625 -3.125 1.90625q-1.84375 0.640625 -4.265625 0.640625l-5.390625 0zm1.03125 -1.953125l4.203125 0q1.953125 0 3.390625 -0.5q1.453125 -0.515625 2.40625 -1.484375q0.96875 -0.984375 1.4375 -2.484375q0.484375 -1.5 0.484375 -3.46875q0 -3.9375 -1.9375 -5.90625q-1.921875 -1.984375 -5.78125 -1.984375l-4.203125 0l0 15.828125zm24.307343 2.203125q-2.15625 0 -3.71875 -0.84375q-1.546875 -0.859375 -2.40625 -2.421875q-0.859375 -1.578125 -0.859375 -3.765625q0 -2.125 0.84375 -3.703125q0.84375 -1.578125 2.3125 -2.46875q1.46875 -0.90625 3.40625 -0.90625q1.375 0 2.453125 0.46875q1.09375 0.453125 1.859375 1.328125q0.78125 0.859375 1.1875 2.09375q0.40625 1.234375 0.40625 2.765625q0 0.453125 -0.25 0.671875q-0.25 0.203125 -0.734375 0.203125l-9.734375 0l0 -1.484375l9.203125 0l-0.453125 0.359375q0 -1.5 -0.453125 -2.546875q-0.4375 -1.0625 -1.296875 -1.625q-0.84375 -0.5625 -2.140625 -0.5625q-1.421875 0 -2.421875 0.671875q-0.984375 0.65625 -1.5 1.8125q-0.5 1.15625 -0.5 2.703125l0 0.171875q0 2.578125 1.25 3.921875q1.25 1.34375 3.546875 1.34375q0.953125 0 1.890625 -0.25q0.9375 -0.265625 1.828125 -0.84375q0.390625 -0.25 0.703125 -0.234375q0.328125 0 0.515625 0.1875q0.203125 0.1875 0.265625 0.453125q0.078125 0.265625 -0.046875 0.578125q-0.125 0.296875 -0.484375 0.53125q-0.921875 0.671875 -2.1875 1.03125q-1.265625 0.359375 -2.484375 0.359375zm0.5 -15.8125q-0.1875 0.28125 -0.46875 0.328125q-0.28125 0.03125 -0.546875 -0.09375q-0.25 -0.125 -0.359375 -0.375q-0.109375 -0.25 0.0625 -0.59375l2.34375 -4.5625q0.203125 -0.390625 0.5 -0.5q0.3125 -0.109375 0.640625 -0.046875q0.328125 0.0625 0.546875 0.296875q0.21875 0.21875 0.265625 0.53125q0.046875 0.3125 -0.1875 0.640625l-2.796875 4.375zm9.380432 20.796875q-0.5625 0 -0.84375 -0.296875q-0.28125 -0.296875 -0.28125 -0.84375l0 -16.75q0 -0.5625 0.28125 -0.84375q0.28125 -0.296875 0.8125 -0.296875q0.5625 0 0.859375 0.296875q0.296875 0.28125 0.296875 0.84375l0 2.65625l-0.3125 -0.390625q0.453125 -1.59375 1.78125 -2.53125q1.328125 -0.9375 3.171875 -0.9375q1.828125 0 3.171875 0.859375q1.359375 0.84375 2.09375 2.4375q0.75 1.578125 0.75 3.765625q0 2.15625 -0.75 3.734375q-0.734375 1.578125 -2.078125 2.453125q-1.34375 0.859375 -3.1875 0.859375q-1.84375 0 -3.171875 -0.9375q-1.3125 -0.9375 -1.78125 -2.5l0.328125 0l0 7.28125q0 0.546875 -0.3125 0.84375q-0.296875 0.296875 -0.828125 0.296875zm5.296875 -6.796875q1.28125 0 2.21875 -0.609375q0.9375 -0.625 1.453125 -1.796875q0.515625 -1.1875 0.515625 -2.828125q0 -2.5625 -1.140625 -3.90625q-1.125 -1.34375 -3.046875 -1.34375q-1.265625 0 -2.21875 0.609375q-0.953125 0.59375 -1.46875 1.765625q-0.515625 1.15625 -0.515625 2.875q0 2.515625 1.140625 3.875q1.15625 1.359375 3.0625 1.359375zm16.042816 1.8125q-2.15625 0 -3.71875 -0.84375q-1.546875 -0.859375 -2.40625 -2.421875q-0.859375 -1.578125 -0.859375 -3.765625q0 -2.125 0.84375 -3.703125q0.84375 -1.578125 2.3125 -2.46875q1.46875 -0.90625 3.40625 -0.90625q1.375 0 2.453125 0.46875q1.09375 0.453125 1.859375 1.328125q0.78125 0.859375 1.1875 2.09375q0.40625 1.234375 0.40625 2.765625q0 0.453125 -0.25 0.671875q-0.25 0.203125 -0.734375 0.203125l-9.734375 0l0 -1.484375l9.203125 0l-0.453125 0.359375q0 -1.5 -0.453125 -2.546875q-0.4375 -1.0625 -1.296875 -1.625q-0.84375 -0.5625 -2.140625 -0.5625q-1.421875 0 -2.421875 0.671875q-0.984375 0.65625 -1.5 1.8125q-0.5 1.15625 -0.5 2.703125l0 0.171875q0 2.578125 1.25 3.921875q1.25 1.34375 3.546875 1.34375q0.953125 0 1.890625 -0.25q0.9375 -0.265625 1.828125 -0.84375q0.390625 -0.25 0.703125 -0.234375q0.328125 0 0.515625 0.1875q0.203125 0.1875 0.265625 0.453125q0.078125 0.265625 -0.046875 0.578125q-0.125 0.296875 -0.484375 0.53125q-0.921875 0.671875 -2.1875 1.03125q-1.265625 0.359375 -2.484375 0.359375zm9.880432 -0.046875q-0.5625 0 -0.84375 -0.3125q-0.28125 -0.3125 -0.28125 -0.875l0 -11.671875q0 -0.5625 0.28125 -0.84375q0.28125 -0.296875 0.8125 -0.296875q0.53125 0 0.828125 0.296875q0.296875 0.28125 0.296875 0.84375l0 2.40625l-0.3125 -0.328125q0.59375 -1.625 1.921875 -2.453125q1.328125 -0.828125 3.0625 -0.828125q1.625 0 2.703125 0.59375q1.078125 0.578125 1.609375 1.78125q0.53125 1.1875 0.53125 3.0l0 7.5q0 0.5625 -0.296875 0.875q-0.296875 0.3125 -0.828125 0.3125q-0.546875 0 -0.84375 -0.3125q-0.296875 -0.3125 -0.296875 -0.875l0 -7.359375q0 -1.90625 -0.75 -2.78125q-0.734375 -0.890625 -2.359375 -0.890625q-1.875 0 -2.984375 1.171875q-1.109375 1.15625 -1.109375 3.09375l0 6.765625q0 1.1875 -1.140625 1.1875zm19.966553 0.046875q-1.828125 0 -3.1875 -0.859375q-1.359375 -0.875 -2.109375 -2.453125q-0.734375 -1.578125 -0.734375 -3.734375q0 -2.1875 0.734375 -3.765625q0.75 -1.59375 2.109375 -2.4375q1.359375 -0.859375 3.1875 -0.859375q1.84375 0 3.15625 0.921875q1.3125 0.921875 1.765625 2.5l-0.3125 0l0 -8.34375q0 -0.5625 0.296875 -0.859375q0.296875 -0.296875 0.859375 -0.296875q0.53125 0 0.828125 0.296875q0.296875 0.296875 0.296875 0.859375l0 17.796875q0 0.5625 -0.28125 0.875q-0.28125 0.3125 -0.84375 0.3125q-0.53125 0 -0.828125 -0.3125q-0.296875 -0.3125 -0.296875 -0.875l0 -2.65625l0.3125 0.390625q-0.453125 1.59375 -1.78125 2.546875q-1.328125 0.953125 -3.171875 0.953125zm0.46875 -1.8125q1.265625 0 2.21875 -0.609375q0.953125 -0.625 1.46875 -1.796875q0.515625 -1.1875 0.515625 -2.828125q0 -2.5625 -1.140625 -3.90625q-1.125 -1.34375 -3.0625 -1.34375q-1.28125 0 -2.21875 0.609375q-0.9375 0.59375 -1.46875 1.765625q-0.515625 1.15625 -0.515625 2.875q0 2.515625 1.140625 3.875q1.15625 1.359375 3.0625 1.359375zm23.079346 1.8125q-1.828125 0 -3.1875 -0.859375q-1.359375 -0.875 -2.109375 -2.453125q-0.734375 -1.578125 -0.734375 -3.734375q0 -2.1875 0.734375 -3.765625q0.75 -1.59375 2.109375 -2.4375q1.359375 -0.859375 3.1875 -0.859375q1.84375 0 3.15625 0.921875q1.3125 0.921875 1.765625 2.5l-0.3125 0l0 -8.34375q0 -0.5625 0.296875 -0.859375q0.296875 -0.296875 0.859375 -0.296875q0.53125 0 0.828125 0.296875q0.296875 0.296875 0.296875 0.859375l0 17.796875q0 0.5625 -0.28125 0.875q-0.28125 0.3125 -0.84375 0.3125q-0.53125 0 -0.828125 -0.3125q-0.296875 -0.3125 -0.296875 -0.875l0 -2.65625l0.3125 0.390625q-0.453125 1.59375 -1.78125 2.546875q-1.328125 0.953125 -3.171875 0.953125zm0.46875 -1.8125q1.265625 0 2.21875 -0.609375q0.953125 -0.625 1.46875 -1.796875q0.515625 -1.1875 0.515625 -2.828125q0 -2.5625 -1.140625 -3.90625q-1.125 -1.34375 -3.0625 -1.34375q-1.28125 0 -2.21875 0.609375q-0.9375 0.59375 -1.46875 1.765625q-0.515625 1.15625 -0.515625 2.875q0 2.515625 1.140625 3.875q1.15625 1.359375 3.0625 1.359375zm16.808441 1.8125q-2.15625 0 -3.71875 -0.84375q-1.546875 -0.859375 -2.40625 -2.421875q-0.859375 -1.578125 -0.859375 -3.765625q0 -2.125 0.84375 -3.703125q0.84375 -1.578125 2.3125 -2.46875q1.46875 -0.90625 3.40625 -0.90625q1.375 0 2.453125 0.46875q1.09375 0.453125 1.859375 1.328125q0.78125 0.859375 1.1875 2.09375q0.40625 1.234375 0.40625 2.765625q0 0.453125 -0.25 0.671875q-0.25 0.203125 -0.734375 0.203125l-9.734375 0l0 -1.484375l9.203125 0l-0.453125 0.359375q0 -1.5 -0.453125 -2.546875q-0.4375 -1.0625 -1.296875 -1.625q-0.84375 -0.5625 -2.140625 -0.5625q-1.421875 0 -2.421875 0.671875q-0.984375 0.65625 -1.5 1.8125q-0.5 1.15625 -0.5 2.703125l0 0.171875q0 2.578125 1.25 3.921875q1.25 1.34375 3.546875 1.34375q0.953125 0 1.890625 -0.25q0.9375 -0.265625 1.828125 -0.84375q0.390625 -0.25 0.703125 -0.234375q0.328125 0 0.515625 0.1875q0.203125 0.1875 0.265625 0.453125q0.078125 0.265625 -0.046875 0.578125q-0.125 0.296875 -0.484375 0.53125q-0.921875 0.671875 -2.1875 1.03125q-1.265625 0.359375 -2.484375 0.359375z" fill-rule="nonzero"/><path fill="#000000" fill-opacity="0.0" d="m554.43427 621.07294l248.26276 0l0 69.269775l-248.26276 0z" fill-rule="evenodd"/><path fill="#000000" d="m566.10614 658.43604q-0.625 0 -0.90625 -0.375q-0.265625 -0.390625 -0.15625 -1.09375l2.9375 -18.390625q0.09375 -0.609375 0.421875 -0.90625q0.34375 -0.3125 0.921875 -0.3125q0.625 0 0.875 0.375q0.265625 0.359375 0.15625 1.078125l-2.9375 18.390625q-0.078125 0.59375 -0.390625 0.921875q-0.3125 0.3125 -0.921875 0.3125zm7.1466675 0q-0.546875 0 -0.796875 -0.34375q-0.25 -0.359375 -0.171875 -1.03125l1.9375 -12.140625q0.125 -0.59375 0.4375 -0.859375q0.328125 -0.28125 0.890625 -0.28125q0.546875 0 0.796875 0.375q0.25 0.359375 0.171875 0.96875l-0.390625 2.46875l-0.265625 -0.359375q0.796875 -1.734375 2.109375 -2.625q1.328125 -0.890625 3.0 -0.890625q1.703125 0 2.765625 0.90625q1.078125 0.90625 1.3125 2.703125l-0.359375 -0.09375q0.703125 -1.671875 2.078125 -2.59375q1.390625 -0.921875 3.265625 -0.921875q1.5 0 2.515625 0.640625q1.03125 0.625 1.4375 1.953125q0.421875 1.3125 0.09375 3.296875l-1.203125 7.6875q-0.0625 0.5625 -0.421875 0.859375q-0.34375 0.28125 -0.921875 0.28125q-0.5625 0 -0.828125 -0.34375q-0.265625 -0.359375 -0.171875 -1.03125l1.171875 -7.5625q0.296875 -1.90625 -0.296875 -2.875q-0.578125 -0.96875 -2.078125 -0.96875q-1.78125 0 -2.96875 1.296875q-1.171875 1.28125 -1.515625 3.53125l-1.09375 6.8125q-0.046875 0.5625 -0.40625 0.859375q-0.34375 0.28125 -0.9375 0.28125q-0.59375 0 -0.84375 -0.34375q-0.234375 -0.359375 -0.15625 -1.03125l1.203125 -7.5625q0.296875 -1.90625 -0.296875 -2.875q-0.578125 -0.96875 -2.078125 -0.96875q-1.78125 0 -2.96875 1.296875q-1.171875 1.28125 -1.546875 3.53125l-1.046875 6.8125q-0.1875 1.140625 -1.421875 1.140625zm24.229858 5.28125q-0.5625 0 -0.828125 -0.375q-0.25 -0.359375 -0.140625 -1.0l2.765625 -17.359375q0.078125 -0.625 0.40625 -0.90625q0.34375 -0.296875 0.9375 -0.296875q0.5625 0 0.8125 0.359375q0.25 0.34375 0.125 1.015625l-0.359375 2.234375l-0.203125 -0.421875q0.796875 -1.515625 2.171875 -2.375q1.375 -0.875 3.203125 -0.875q1.671875 0 2.90625 0.734375q1.25 0.734375 1.921875 2.109375q0.6875 1.375 0.6875 3.25q0 2.34375 -0.84375 4.328125q-0.828125 1.984375 -2.4375 3.171875q-1.59375 1.1875 -3.875 1.1875q-1.703125 0 -3.0625 -0.859375q-1.34375 -0.875 -1.84375 -2.625l0.234375 0l-1.234375 7.5625q-0.046875 0.578125 -0.390625 0.859375q-0.328125 0.28125 -0.953125 0.28125zm6.953125 -7.125q1.640625 0 2.75 -0.90625q1.125 -0.90625 1.703125 -2.4375q0.59375 -1.53125 0.59375 -3.34375q0 -2.109375 -1.03125 -3.1875q-1.03125 -1.09375 -2.8125 -1.09375q-1.609375 0 -2.75 0.90625q-1.125 0.90625 -1.71875 2.40625q-0.578125 1.5 -0.578125 3.375q0 2.078125 1.015625 3.1875q1.03125 1.09375 2.828125 1.09375zm14.192078 1.90625q-2.078125 0 -3.046875 -1.25q-0.96875 -1.25 -0.59375 -3.671875l2.40625 -15.046875q0.09375 -0.59375 0.421875 -0.875q0.34375 -0.296875 0.9375 -0.296875q0.546875 0 0.8125 0.375q0.265625 0.359375 0.15625 1.03125l-2.359375 14.8125q-0.25 1.546875 0.234375 2.21875q0.5 0.671875 1.671875 0.671875q0.421875 0 0.640625 -0.03125q0.21875 -0.046875 0.359375 -0.046875q0.234375 0 0.34375 0.15625q0.125 0.140625 0.125 0.546875q0 0.546875 -0.265625 0.859375q-0.265625 0.3125 -0.671875 0.421875q-0.234375 0.03125 -0.578125 0.078125q-0.328125 0.046875 -0.59375 0.046875zm11.003174 0q-2.03125 0 -3.53125 -0.765625q-1.484375 -0.765625 -2.296875 -2.1875q-0.796875 -1.421875 -0.796875 -3.359375q0 -2.3125 0.9375 -4.234375q0.9375 -1.921875 2.625 -3.078125q1.703125 -1.15625 4.0625 -1.15625q1.671875 0 2.796875 0.59375q1.125 0.578125 1.796875 1.578125q0.671875 1.0 0.875 2.28125q0.21875 1.265625 0.0625 2.609375q-0.046875 0.5 -0.265625 0.671875q-0.203125 0.15625 -0.640625 0.15625l-10.40625 0l0.234375 -1.5625l9.625 0l-0.53125 0.390625q0.203125 -1.390625 -0.09375 -2.5q-0.296875 -1.109375 -1.15625 -1.78125q-0.84375 -0.671875 -2.328125 -0.671875q-1.59375 0 -2.65625 0.71875q-1.046875 0.703125 -1.65625 1.828125q-0.59375 1.109375 -0.796875 2.3125l-0.109375 0.703125q-0.421875 2.5 0.75 4.03125q1.1875 1.515625 3.609375 1.515625q1.0625 0 2.0625 -0.265625q1.0 -0.265625 1.875 -0.84375q0.40625 -0.265625 0.71875 -0.25q0.3125 0.015625 0.5 0.203125q0.1875 0.1875 0.234375 0.46875q0.046875 0.28125 -0.09375 0.59375q-0.125 0.296875 -0.484375 0.5625q-1.0 0.703125 -2.34375 1.078125q-1.34375 0.359375 -2.578125 0.359375zm2.5 -16.546875q-0.265625 0.296875 -0.5625 0.328125q-0.296875 0.03125 -0.515625 -0.109375q-0.21875 -0.15625 -0.28125 -0.4375q-0.046875 -0.28125 0.1875 -0.625l3.125 -4.71875q0.296875 -0.453125 0.625 -0.546875q0.34375 -0.109375 0.640625 -0.015625q0.296875 0.09375 0.5 0.34375q0.203125 0.25 0.203125 0.578125q0 0.3125 -0.265625 0.65625l-3.65625 4.546875zm7.461914 16.484375q-0.546875 0 -0.796875 -0.34375q-0.25 -0.359375 -0.171875 -1.03125l1.9375 -12.140625q0.125 -0.59375 0.4375 -0.859375q0.328125 -0.28125 0.890625 -0.28125q0.546875 0 0.796875 0.375q0.25 0.359375 0.171875 0.96875l-0.390625 2.46875l-0.265625 -0.359375q0.796875 -1.734375 2.109375 -2.625q1.328125 -0.890625 3.0 -0.890625q1.703125 0 2.765625 0.90625q1.078125 0.90625 1.3125 2.703125l-0.359375 -0.09375q0.703125 -1.671875 2.078125 -2.59375q1.390625 -0.921875 3.265625 -0.921875q1.5 0 2.515625 0.640625q1.03125 0.625 1.4375 1.953125q0.421875 1.3125 0.09375 3.296875l-1.203125 7.6875q-0.0625 0.5625 -0.421875 0.859375q-0.34375 0.28125 -0.921875 0.28125q-0.5625 0 -0.828125 -0.34375q-0.265625 -0.359375 -0.171875 -1.03125l1.171875 -7.5625q0.296875 -1.90625 -0.296875 -2.875q-0.578125 -0.96875 -2.078125 -0.96875q-1.78125 0 -2.96875 1.296875q-1.171875 1.28125 -1.515625 3.53125l-1.09375 6.8125q-0.046875 0.5625 -0.40625 0.859375q-0.34375 0.28125 -0.9375 0.28125q-0.59375 0 -0.84375 -0.34375q-0.234375 -0.359375 -0.15625 -1.03125l1.203125 -7.5625q0.296875 -1.90625 -0.296875 -2.875q-0.578125 -0.96875 -2.078125 -0.96875q-1.78125 0 -2.96875 1.296875q-1.171875 1.28125 -1.546875 3.53125l-1.046875 6.8125q-0.1875 1.140625 -1.421875 1.140625zm30.745483 0.0625q-2.03125 0 -3.53125 -0.765625q-1.484375 -0.765625 -2.296875 -2.1875q-0.796875 -1.421875 -0.796875 -3.359375q0 -2.3125 0.9375 -4.234375q0.9375 -1.921875 2.625 -3.078125q1.703125 -1.15625 4.0625 -1.15625q1.671875 0 2.796875 0.59375q1.125 0.578125 1.796875 1.578125q0.671875 1.0 0.875 2.28125q0.21875 1.265625 0.0625 2.609375q-0.046875 0.5 -0.265625 0.671875q-0.203125 0.15625 -0.640625 0.15625l-10.40625 0l0.234375 -1.5625l9.625 0l-0.53125 0.390625q0.203125 -1.390625 -0.09375 -2.5q-0.296875 -1.109375 -1.15625 -1.78125q-0.84375 -0.671875 -2.328125 -0.671875q-1.59375 0 -2.65625 0.71875q-1.046875 0.703125 -1.65625 1.828125q-0.59375 1.109375 -0.796875 2.3125l-0.109375 0.703125q-0.421875 2.5 0.75 4.03125q1.1875 1.515625 3.609375 1.515625q1.0625 0 2.0625 -0.265625q1.0 -0.265625 1.875 -0.84375q0.40625 -0.265625 0.71875 -0.25q0.3125 0.015625 0.5 0.203125q0.1875 0.1875 0.234375 0.46875q0.046875 0.28125 -0.09375 0.59375q-0.125 0.296875 -0.484375 0.5625q-1.0 0.703125 -2.34375 1.078125q-1.34375 0.359375 -2.578125 0.359375zm9.94635 -0.09375q-0.5625 0 -0.8125 -0.375q-0.25 -0.390625 -0.15625 -1.03125l1.90625 -12.046875q0.109375 -0.59375 0.4375 -0.875q0.34375 -0.296875 0.9375 -0.296875q0.53125 0 0.78125 0.34375q0.25 0.328125 0.125 0.96875l-0.375 2.46875l-0.234375 -0.359375q0.734375 -1.671875 2.15625 -2.578125q1.421875 -0.90625 3.375 -0.90625q1.59375 0 2.65625 0.640625q1.078125 0.625 1.53125 1.9375q0.453125 1.296875 0.125 3.3125l-1.203125 7.65625q-0.046875 0.59375 -0.40625 0.875q-0.359375 0.265625 -0.9375 0.265625q-0.5625 0 -0.828125 -0.359375q-0.25 -0.375 -0.171875 -1.015625l1.171875 -7.421875q0.359375 -1.984375 -0.328125 -2.96875q-0.671875 -0.984375 -2.3125 -0.984375q-2.140625 0 -3.40625 1.328125q-1.25 1.3125 -1.609375 3.5l-1.046875 6.75q-0.1875 1.171875 -1.375 1.171875zm21.377075 0.09375q-1.671875 0 -2.75 -0.640625q-1.0625 -0.65625 -1.5 -1.796875q-0.421875 -1.140625 -0.1875 -2.71875l1.203125 -7.515625l-1.8125 0q-0.5 0 -0.78125 -0.203125q-0.28125 -0.203125 -0.28125 -0.59375q0 -0.515625 0.34375 -0.78125q0.359375 -0.265625 0.921875 -0.265625l1.90625 0l0.53125 -3.46875q0.109375 -0.546875 0.4375 -0.828125q0.328125 -0.28125 0.875 -0.28125q0.59375 0 0.859375 0.359375q0.265625 0.34375 0.171875 0.984375l-0.5 3.234375l3.515625 0q0.53125 0 0.796875 0.171875q0.265625 0.171875 0.265625 0.59375q0 0.484375 -0.3125 0.78125q-0.3125 0.296875 -0.859375 0.296875l-3.734375 0l-1.140625 7.28125q-0.265625 1.78125 0.375 2.578125q0.65625 0.78125 2.03125 0.78125q0.625 0 0.96875 -0.109375q0.359375 -0.125 0.59375 -0.125q0.28125 0 0.421875 0.171875q0.15625 0.15625 0.15625 0.5625q0 0.59375 -0.1875 0.859375q-0.1875 0.265625 -0.578125 0.40625q-0.3125 0.125 -0.828125 0.1875q-0.515625 0.078125 -0.921875 0.078125zm11.055664 0q-2.03125 0 -3.53125 -0.765625q-1.484375 -0.765625 -2.296875 -2.1875q-0.796875 -1.421875 -0.796875 -3.359375q0 -2.3125 0.9375 -4.234375q0.9375 -1.921875 2.625 -3.078125q1.703125 -1.15625 4.0625 -1.15625q1.671875 0 2.796875 0.59375q1.125 0.578125 1.796875 1.578125q0.671875 1.0 0.875 2.28125q0.21875 1.265625 0.0625 2.609375q-0.046875 0.5 -0.265625 0.671875q-0.203125 0.15625 -0.640625 0.15625l-10.40625 0l0.234375 -1.5625l9.625 0l-0.53125 0.390625q0.203125 -1.390625 -0.09375 -2.5q-0.296875 -1.109375 -1.15625 -1.78125q-0.84375 -0.671875 -2.328125 -0.671875q-1.59375 0 -2.65625 0.71875q-1.046875 0.703125 -1.65625 1.828125q-0.59375 1.109375 -0.796875 2.3125l-0.109375 0.703125q-0.421875 2.5 0.75 4.03125q1.1875 1.515625 3.609375 1.515625q1.0625 0 2.0625 -0.265625q1.0 -0.265625 1.875 -0.84375q0.40625 -0.265625 0.71875 -0.25q0.3125 0.015625 0.5 0.203125q0.1875 0.1875 0.234375 0.46875q0.046875 0.28125 -0.09375 0.59375q-0.125 0.296875 -0.484375 0.5625q-1.0 0.703125 -2.34375 1.078125q-1.34375 0.359375 -2.578125 0.359375z" fill-rule="nonzero"/><path fill="#000000" fill-opacity="0.0" d="m14.766404 228.83376l457.22833 -0.8818817" fill-rule="evenodd"/><path stroke="#000000" stroke-width="3.0" stroke-linejoin="round" stroke-linecap="butt" stroke-dasharray="12.0,9.0" d="m14.766404 228.83376l457.22833 -0.8818817" fill-rule="evenodd"/><path fill="#000000" fill-opacity="0.0" d="m141.38058 39.539795l204.0 0l0 54.92913l-204.0 0z" fill-rule="evenodd"/><path fill="#000000" d="m195.79384 76.69979l0 -20.999996l2.78125 0l0 18.515621l10.34375 0l0 2.484375l-13.125 0zm26.029663 -1.875q-1.4375 1.21875 -2.765625 1.71875q-1.3125 0.5 -2.828125 0.5q-2.515625 0 -3.859375 -1.21875q-1.34375 -1.234375 -1.34375 -3.140625q0 -1.109375 0.5 -2.03125q0.515625 -0.921875 1.328125 -1.484375q0.828125 -0.5625 1.859375 -0.84375q0.765625 -0.203125 2.296875 -0.390625q3.125 -0.375 4.59375 -0.890625q0.015625 -0.53125 0.015625 -0.671875q0 -1.578125 -0.734375 -2.21875q-0.984375 -0.8749962 -2.9375 -0.8749962q-1.8125 0 -2.6875 0.640625q-0.859375 0.6406212 -1.265625 2.2499962l-2.53125 -0.34375q0.34375 -1.609375 1.125 -2.6093712q0.796875 -1.0 2.28125 -1.53125q1.5 -0.53125 3.453125 -0.53125q1.953125 0 3.171875 0.453125q1.21875 0.453125 1.78125 1.15625q0.578125 0.6875 0.8125 1.7499962q0.125 0.65625 0.125 2.375l0 3.4375q0 3.59375 0.15625 4.546875q0.171875 0.953125 0.65625 1.828125l-2.6875 0q-0.40625 -0.796875 -0.515625 -1.875zm-0.21875 -5.75q-1.40625 0.5625 -4.203125 0.96875q-1.59375 0.21875 -2.25 0.515625q-0.65625 0.28125 -1.015625 0.84375q-0.359375 0.546875 -0.359375 1.21875q0 1.03125 0.78125 1.71875q0.78125 0.6875 2.28125 0.6875q1.484375 0 2.640625 -0.65625q1.171875 -0.65625 1.71875 -1.78125q0.40625 -0.875 0.40625 -2.578125l0 -0.9375zm6.482788 13.484375l-0.28125 -2.421875q0.84375 0.234375 1.46875 0.234375q0.859375 0 1.375 -0.296875q0.515625 -0.28125 0.859375 -0.796875q0.234375 -0.390625 0.78125 -1.921875q0.078125 -0.21875 0.234375 -0.625l-5.78125 -15.234371l2.78125 0l3.171875 8.796871q0.609375 1.6875 1.09375 3.53125q0.453125 -1.78125 1.0625 -3.46875l3.25 -8.859371l2.578125 0l-5.78125 15.453121q-0.9375 2.515625 -1.453125 3.453125q-0.6875 1.28125 -1.578125 1.875q-0.875 0.59375 -2.109375 0.59375q-0.75 0 -1.671875 -0.3125zm25.195312 -10.75l2.65625 0.328125q-0.625 2.328125 -2.328125 3.625q-1.703125 1.28125 -4.359375 1.28125q-3.328125 0 -5.28125 -2.046875q-1.953125 -2.0625 -1.953125 -5.765625q0 -3.84375 1.96875 -5.953121q1.984375 -2.125 5.125 -2.125q3.0625 0 4.984375 2.078125q1.9374847 2.0624962 1.9374847 5.843746q0 0.21875 -0.015625 0.671875l-11.343735 0q0.140625 2.515625 1.421875 3.84375q1.28125 1.328125 3.171875 1.328125q1.421875 0 2.421875 -0.734375q1.0 -0.75 1.59375 -2.375zm-8.46875 -4.171875l8.5 0q-0.171875 -1.921875 -0.96875 -2.875q-1.234375 -1.4999962 -3.203125 -1.4999962q-1.765625 0 -2.984375 1.1874962q-1.203125 1.1875 -1.34375 3.1875zm14.342148 9.0625l0 -15.203121l2.3125 0l0 2.296875q0.890625 -1.609375 1.640625 -2.125q0.75 -0.515625 1.65625 -0.515625q1.3125 0 2.65625 0.828125l-0.890625 2.3906212q-0.953125 -0.5624962 -1.890625 -0.5624962q-0.84375 0 -1.515625 0.5156212q-0.671875 0.5 -0.96875 1.40625q-0.421875 1.375 -0.421875 3.0l0 7.96875l-2.578125 0zm14.343201 0l8.0625 -20.999996l3.0 0l8.59375 20.999996l-3.171875 0l-2.453125 -6.359375l-8.765625 0l-2.3125 6.359375l-2.953125 0zm6.0625 -8.625l7.109375 0l-2.1875 -5.812496q-1.0 -2.640625 -1.484375 -4.34375q-0.40625 2.015625 -1.140625 4.0l-2.296875 6.156246z" fill-rule="nonzero"/><path fill="#000000" fill-opacity="0.0" d="m596.46716 39.539795l204.0 0l0 54.92913l-204.0 0z" fill-rule="evenodd"/><path fill="#000000" d="m650.88043 76.69979l0 -20.999996l2.78125 0l0 18.515621l10.34375 0l0 2.484375l-13.125 0zm26.029663 -1.875q-1.4375 1.21875 -2.765625 1.71875q-1.3125 0.5 -2.828125 0.5q-2.515625 0 -3.859375 -1.21875q-1.34375 -1.234375 -1.34375 -3.140625q0 -1.109375 0.5 -2.03125q0.515625 -0.921875 1.328125 -1.484375q0.828125 -0.5625 1.859375 -0.84375q0.765625 -0.203125 2.296875 -0.390625q3.125 -0.375 4.59375 -0.890625q0.015625 -0.53125 0.015625 -0.671875q0 -1.578125 -0.734375 -2.21875q-0.984375 -0.8749962 -2.9375 -0.8749962q-1.8125 0 -2.6875 0.640625q-0.859375 0.6406212 -1.265625 2.2499962l-2.53125 -0.34375q0.34375 -1.609375 1.125 -2.6093712q0.796875 -1.0 2.28125 -1.53125q1.5 -0.53125 3.453125 -0.53125q1.953125 0 3.171875 0.453125q1.21875 0.453125 1.78125 1.15625q0.578125 0.6875 0.8125 1.7499962q0.125 0.65625 0.125 2.375l0 3.4375q0 3.59375 0.15625 4.546875q0.171875 0.953125 0.65625 1.828125l-2.6875 0q-0.40625 -0.796875 -0.515625 -1.875zm-0.21875 -5.75q-1.40625 0.5625 -4.203125 0.96875q-1.59375 0.21875 -2.25 0.515625q-0.65625 0.28125 -1.015625 0.84375q-0.359375 0.546875 -0.359375 1.21875q0 1.03125 0.78125 1.71875q0.78125 0.6875 2.28125 0.6875q1.484375 0 2.640625 -0.65625q1.171875 -0.65625 1.71875 -1.78125q0.40625 -0.875 0.40625 -2.578125l0 -0.9375zm6.482788 13.484375l-0.28125 -2.421875q0.84375 0.234375 1.46875 0.234375q0.859375 0 1.375 -0.296875q0.515625 -0.28125 0.859375 -0.796875q0.234375 -0.390625 0.78125 -1.921875q0.078125 -0.21875 0.234375 -0.625l-5.78125 -15.234371l2.78125 0l3.171875 8.796871q0.609375 1.6875 1.09375 3.53125q0.453125 -1.78125 1.0625 -3.46875l3.25 -8.859371l2.578125 0l-5.78125 15.453121q-0.9375 2.515625 -1.453125 3.453125q-0.6875 1.28125 -1.578125 1.875q-0.875 0.59375 -2.109375 0.59375q-0.75 0 -1.671875 -0.3125zm25.195312 -10.75l2.65625 0.328125q-0.625 2.328125 -2.328125 3.625q-1.703125 1.28125 -4.359375 1.28125q-3.328125 0 -5.28125 -2.046875q-1.953125 -2.0625 -1.953125 -5.765625q0 -3.84375 1.96875 -5.953121q1.984375 -2.125 5.125 -2.125q3.0625 0 4.984375 2.078125q1.9375 2.0624962 1.9375 5.843746q0 0.21875 -0.015625 0.671875l-11.34375 0q0.140625 2.515625 1.421875 3.84375q1.28125 1.328125 3.171875 1.328125q1.421875 0 2.421875 -0.734375q1.0 -0.75 1.59375 -2.375zm-8.46875 -4.171875l8.5 0q-0.171875 -1.921875 -0.96875 -2.875q-1.234375 -1.4999962 -3.203125 -1.4999962q-1.765625 0 -2.984375 1.1874962q-1.203125 1.1875 -1.34375 3.1875zm14.342163 9.0625l0 -15.203121l2.3125 0l0 2.296875q0.890625 -1.609375 1.640625 -2.125q0.75 -0.515625 1.65625 -0.515625q1.3125 0 2.65625 0.828125l-0.890625 2.3906212q-0.953125 -0.5624962 -1.890625 -0.5624962q-0.84375 0 -1.515625 0.5156212q-0.671875 0.5 -0.96875 1.40625q-0.421875 1.375 -0.421875 3.0l0 7.96875l-2.578125 0zm14.343201 0l8.0625 -20.999996l3.0 0l8.59375 20.999996l-3.171875 0l-2.453125 -6.359375l-8.765625 0l-2.3125 6.359375l-2.953125 0zm6.0625 -8.625l7.109375 0l-2.1875 -5.812496q-1.0 -2.640625 -1.484375 -4.34375q-0.40625 2.015625 -1.140625 4.0l-2.296875 6.156246z" fill-rule="nonzero"/><path fill="#000000" fill-opacity="0.0" d="m141.38058 390.90463l204.0 0l0 54.92914l-204.0 0z" fill-rule="evenodd"/><path fill="#000000" d="m194.98459 428.06464l0 -21.0l2.78125 0l0 18.515625l10.34375 0l0 2.484375l-13.125 0zm26.029663 -1.875q-1.4375 1.21875 -2.765625 1.71875q-1.3125 0.5 -2.828125 0.5q-2.515625 0 -3.859375 -1.21875q-1.34375 -1.234375 -1.34375 -3.140625q0 -1.109375 0.5 -2.03125q0.515625 -0.921875 1.328125 -1.484375q0.828125 -0.5625 1.859375 -0.84375q0.765625 -0.203125 2.296875 -0.390625q3.125 -0.375 4.59375 -0.890625q0.015625 -0.53125 0.015625 -0.671875q0 -1.578125 -0.734375 -2.21875q-0.984375 -0.875 -2.9375 -0.875q-1.8125 0 -2.6875 0.640625q-0.859375 0.640625 -1.265625 2.25l-2.53125 -0.34375q0.34375 -1.609375 1.125 -2.609375q0.796875 -1.0 2.28125 -1.53125q1.5 -0.53125 3.453125 -0.53125q1.953125 0 3.171875 0.453125q1.21875 0.453125 1.78125 1.15625q0.578125 0.6875 0.8125 1.75q0.125 0.65625 0.125 2.375l0 3.4375q0 3.59375 0.15625 4.546875q0.171875 0.953125 0.65625 1.828125l-2.6875 0q-0.40625 -0.796875 -0.515625 -1.875zm-0.21875 -5.75q-1.40625 0.5625 -4.203125 0.96875q-1.59375 0.21875 -2.25 0.515625q-0.65625 0.28125 -1.015625 0.84375q-0.359375 0.546875 -0.359375 1.21875q0 1.03125 0.78125 1.71875q0.78125 0.6875 2.28125 0.6875q1.484375 0 2.640625 -0.65625q1.171875 -0.65625 1.71875 -1.78125q0.40625 -0.875 0.40625 -2.578125l0 -0.9375zm6.482788 13.484375l-0.28125 -2.421875q0.84375 0.234375 1.46875 0.234375q0.859375 0 1.375 -0.296875q0.515625 -0.28125 0.859375 -0.796875q0.234375 -0.390625 0.78125 -1.921875q0.078125 -0.21875 0.234375 -0.625l-5.78125 -15.234375l2.78125 0l3.171875 8.796875q0.609375 1.6875 1.09375 3.53125q0.453125 -1.78125 1.0625 -3.46875l3.25 -8.859375l2.578125 0l-5.78125 15.453125q-0.9375 2.515625 -1.453125 3.453125q-0.6875 1.28125 -1.578125 1.875q-0.875 0.59375 -2.109375 0.59375q-0.75 0 -1.671875 -0.3125zm25.195312 -10.75l2.65625 0.328125q-0.625 2.328125 -2.328125 3.625q-1.703125 1.28125 -4.359375 1.28125q-3.328125 0 -5.28125 -2.046875q-1.953125 -2.0625 -1.953125 -5.765625q0 -3.84375 1.96875 -5.953125q1.984375 -2.125 5.125 -2.125q3.0625 0 4.984375 2.078125q1.9375 2.0625 1.9375 5.84375q0 0.21875 -0.015625 0.671875l-11.34375 0q0.140625 2.515625 1.421875 3.84375q1.28125 1.328125 3.171875 1.328125q1.421875 0 2.421875 -0.734375q1.0 -0.75 1.59375 -2.375zm-8.46875 -4.171875l8.5 0q-0.171875 -1.921875 -0.96875 -2.875q-1.234375 -1.5 -3.203125 -1.5q-1.765625 0 -2.984375 1.1875q-1.203125 1.1875 -1.34375 3.1875zm14.342163 9.0625l0 -15.203125l2.3125 0l0 2.296875q0.890625 -1.609375 1.640625 -2.125q0.75 -0.515625 1.65625 -0.515625q1.3125 0 2.65625 0.828125l-0.890625 2.390625q-0.953125 -0.5625 -1.890625 -0.5625q-0.84375 0 -1.515625 0.515625q-0.671875 0.5 -0.96875 1.40625q-0.421875 1.375 -0.421875 3.0l0 7.96875l-2.578125 0zm18.14917 0l0 -21.0l7.890625 0q2.40625 0 3.859375 0.640625q1.453125 0.640625 2.265625 1.96875q0.828125 1.328125 0.828125 2.765625q0 1.34375 -0.734375 2.53125q-0.734375 1.1875 -2.203125 1.921875q1.90625 0.5625 2.921875 1.90625q1.03125 1.34375 1.03125 3.171875q0 1.484375 -0.625 2.75q-0.625 1.265625 -1.546875 1.953125q-0.90625 0.6875 -2.296875 1.046875q-1.375 0.34375 -3.375 0.34375l-8.015625 0zm2.78125 -12.171875l4.546875 0q1.84375 0 2.640625 -0.25q1.0625 -0.3125 1.59375 -1.03125q0.546875 -0.734375 0.546875 -1.84375q0 -1.046875 -0.5 -1.828125q-0.5 -0.796875 -1.4375 -1.09375q-0.921875 -0.296875 -3.1875 -0.296875l-4.203125 0l0 6.34375zm0 9.6875l5.234375 0q1.34375 0 1.890625 -0.09375q0.953125 -0.171875 1.59375 -0.5625q0.65625 -0.40625 1.0625 -1.171875q0.421875 -0.765625 0.421875 -1.78125q0 -1.171875 -0.609375 -2.03125q-0.59375 -0.875 -1.671875 -1.21875q-1.0625 -0.34375 -3.0625 -0.34375l-4.859375 0l0 7.203125z" fill-rule="nonzero"/><path fill="#000000" fill-opacity="0.0" d="m596.46716 545.1986l204.0 0l0 54.92914l-204.0 0z" fill-rule="evenodd"/><path fill="#000000" d="m650.0712 582.3586l0 -21.0l2.78125 0l0 18.515625l10.34375 0l0 2.484375l-13.125 0zm26.029663 -1.875q-1.4375 1.21875 -2.765625 1.71875q-1.3125 0.5 -2.828125 0.5q-2.515625 0 -3.859375 -1.21875q-1.34375 -1.234375 -1.34375 -3.140625q0 -1.109375 0.5 -2.03125q0.515625 -0.921875 1.328125 -1.484375q0.828125 -0.5625 1.859375 -0.84375q0.765625 -0.203125 2.296875 -0.390625q3.125 -0.375 4.59375 -0.890625q0.015625 -0.53125 0.015625 -0.671875q0 -1.578125 -0.734375 -2.21875q-0.984375 -0.875 -2.9375 -0.875q-1.8125 0 -2.6875 0.640625q-0.859375 0.640625 -1.265625 2.25l-2.53125 -0.34375q0.34375 -1.609375 1.125 -2.609375q0.796875 -1.0 2.28125 -1.53125q1.5 -0.53125 3.453125 -0.53125q1.953125 0 3.171875 0.453125q1.21875 0.453125 1.78125 1.15625q0.578125 0.6875 0.8125 1.75q0.125 0.65625 0.125 2.375l0 3.4375q0 3.59375 0.15625 4.546875q0.171875 0.953125 0.65625 1.828125l-2.6875 0q-0.40625 -0.796875 -0.515625 -1.875zm-0.21875 -5.75q-1.40625 0.5625 -4.203125 0.96875q-1.59375 0.21875 -2.25 0.515625q-0.65625 0.28125 -1.015625 0.84375q-0.359375 0.546875 -0.359375 1.21875q0 1.03125 0.78125 1.71875q0.78125 0.6875 2.28125 0.6875q1.484375 0 2.640625 -0.65625q1.171875 -0.65625 1.71875 -1.78125q0.40625 -0.875 0.40625 -2.578125l0 -0.9375zm6.482788 13.484375l-0.28125 -2.421875q0.84375 0.234375 1.46875 0.234375q0.859375 0 1.375 -0.296875q0.515625 -0.28125 0.859375 -0.796875q0.234375 -0.390625 0.78125 -1.921875q0.078125 -0.21875 0.234375 -0.625l-5.78125 -15.234375l2.78125 0l3.171875 8.796875q0.609375 1.6875 1.09375 3.53125q0.453125 -1.78125 1.0625 -3.46875l3.25 -8.859375l2.578125 0l-5.78125 15.453125q-0.9375 2.515625 -1.453125 3.453125q-0.6875 1.28125 -1.578125 1.875q-0.875 0.59375 -2.109375 0.59375q-0.75 0 -1.671875 -0.3125zm25.195312 -10.75l2.65625 0.328125q-0.625 2.328125 -2.328125 3.625q-1.703125 1.28125 -4.359375 1.28125q-3.328125 0 -5.28125 -2.046875q-1.953125 -2.0625 -1.953125 -5.765625q0 -3.84375 1.96875 -5.953125q1.984375 -2.125 5.125 -2.125q3.0625 0 4.984375 2.078125q1.9375 2.0625 1.9375 5.84375q0 0.21875 -0.015625 0.671875l-11.34375 0q0.140625 2.515625 1.421875 3.84375q1.28125 1.328125 3.171875 1.328125q1.421875 0 2.421875 -0.734375q1.0 -0.75 1.59375 -2.375zm-8.46875 -4.171875l8.5 0q-0.171875 -1.921875 -0.96875 -2.875q-1.234375 -1.5 -3.203125 -1.5q-1.765625 0 -2.984375 1.1875q-1.203125 1.1875 -1.34375 3.1875zm14.342163 9.0625l0 -15.203125l2.3125 0l0 2.296875q0.890625 -1.609375 1.640625 -2.125q0.75 -0.515625 1.65625 -0.515625q1.3125 0 2.65625 0.828125l-0.890625 2.390625q-0.953125 -0.5625 -1.890625 -0.5625q-0.84375 0 -1.515625 0.515625q-0.671875 0.5 -0.96875 1.40625q-0.421875 1.375 -0.421875 3.0l0 7.96875l-2.578125 0zm18.149109 0l0 -21.0l7.890625 0q2.40625 0 3.859375 0.640625q1.453125 0.640625 2.265625 1.96875q0.828125 1.328125 0.828125 2.765625q0 1.34375 -0.734375 2.53125q-0.734375 1.1875 -2.203125 1.921875q1.90625 0.5625 2.921875 1.90625q1.03125 1.34375 1.03125 3.171875q0 1.484375 -0.625 2.75q-0.625 1.265625 -1.546875 1.953125q-0.90625 0.6875 -2.296875 1.046875q-1.375 0.34375 -3.375 0.34375l-8.015625 0zm2.78125 -12.171875l4.546875 0q1.84375 0 2.640625 -0.25q1.0625 -0.3125 1.59375 -1.03125q0.546875 -0.734375 0.546875 -1.84375q0 -1.046875 -0.5 -1.828125q-0.5 -0.796875 -1.4375 -1.09375q-0.921875 -0.296875 -3.1875 -0.296875l-4.203125 0l0 6.34375zm0 9.6875l5.234375 0q1.34375 0 1.890625 -0.09375q0.953125 -0.171875 1.59375 -0.5625q0.65625 -0.40625 1.0625 -1.171875q0.421875 -0.765625 0.421875 -1.78125q0 -1.171875 -0.609375 -2.03125q-0.59375 -0.875 -1.671875 -1.21875q-1.0625 -0.34375 -3.0625 -0.34375l-4.859375 0l0 7.203125z" fill-rule="nonzero"/><path fill="#000000" fill-opacity="0.0" d="m488.00525 403.87314l457.22833 -0.881897" fill-rule="evenodd"/><path stroke="#000000" stroke-width="3.0" stroke-linejoin="round" stroke-linecap="butt" stroke-dasharray="12.0,9.0" d="m488.00525 403.87314l457.22833 -0.881897" fill-rule="evenodd"/></g></svg>